<?xml version="1.0" encoding="UTF-8" standalone="no"?>
<svg
   xmlns:dc="http://purl.org/dc/elements/1.1/"
   xmlns:cc="http://creativecommons.org/ns#"
   xmlns:rdf="http://www.w3.org/1999/02/22-rdf-syntax-ns#"
   xmlns:svg="http://www.w3.org/2000/svg"
   xmlns="http://www.w3.org/2000/svg"
   id="svg8"
   version="1.1"
   viewBox="0 0 1000 1000"
   height="1000"
   width="1000">
  <defs
     id="defs2" />
  <metadata
     id="metadata5">
    <rdf:RDF>
      <cc:Work
         rdf:about="">
        <dc:format>image/svg+xml</dc:format>
        <dc:type
           rdf:resource="http://purl.org/dc/dcmitype/StillImage" />
        <dc:title></dc:title>
      </cc:Work>
    </rdf:RDF>
  </metadata>
  <g
     transform="translate(0,-767.833)"
     id="layer1">
    <g
       transform="matrix(0.95892722,0,0,0.95892722,13.738018,59.138835)"
       id="g32">
      <g
         transform="translate(0.08650499,1.5194369)"
         id="g45">
        <path
           id="path24"
           d="m 486.4279,810.2621 c -1.32777,0.22476 -2.64903,0.46779 -3.96685,0.7301 -73.79763,14.68975 -131.6511,88.01065 -135.0446,178.36506 -3.77646,100.51934 59.83629,222.49074 144.98863,231.97904 -0.33829,1.9286 -1.0908,4.7782 -2.92373,6.2167 -1.79933,1.4129 -7.47302,-0.4482 -8.81701,3.1798 -1.36043,3.6796 7.14227,6.3725 16.31561,7.2406 -0.3108,-0.032 -0.62495,-0.029 -0.93473,-0.065 -1.4321,8.424 -2.48746,17.0782 -2.76887,26.2024 -0.56021,18.1739 1.94229,37.8237 3.68309,52.6318 1.74073,14.8077 2.72908,24.6604 1.58141,37.4222 -1.1483,12.762 -4.48547,28.6018 -7.72169,43.49 -3.23697,14.8895 -6.4289,29.039 -5.7155,45.1404 0.71375,16.1018 5.28027,33.7135 7.54569,46.654 2.26493,12.9407 2.33015,21.2727 1.07063,31.8044 -1.25912,10.5318 -3.94551,23.3764 -3.389,36.904 0.55737,13.5289 4.33863,27.2554 8.04884,40.8359 0.78369,3.3156 5.76999,1.9602 4.76726,-1.2959 -3.71081,-13.5812 -7.34495,-27.0092 -7.86974,-39.749 -0.52392,-12.7396 2.04361,-25.2404 3.34372,-36.1074 1.29876,-10.8674 1.22282,-19.9499 -1.10353,-33.2396 -2.32496,-13.2896 -6.79874,-30.7123 -7.4782,-46.0313 -0.67851,-15.3183 2.36913,-28.9473 5.61113,-43.8581 3.24117,-14.9106 6.61726,-30.8614 7.80838,-44.1034 1.1914,-13.2417 0.15448,-23.599 -1.59094,-38.4452 -1.74475,-14.8453 -4.19037,-34.2879 -3.64778,-51.8966 0.27793,-9.0044 1.34061,-17.5841 2.78632,-25.9974 -0.59012,-0.018 -1.17686,-0.091 -1.76798,-0.1279 9.1394,0.5436 18.23457,-0.7696 18.38139,-4.976 0.12575,-3.3092 -6.97319,-3.0695 -8.46668,-4.5977 -1.71517,-1.7541 -2.45567,-4.6765 -2.80813,-6.7029 8.28185,-0.2866 16.43998,-1.6642 24.42813,-3.9614 2.41647,-19.5302 6.65886,-38.5621 12.85037,-56.2653 22.11905,-63.2455 68.54874,-109.7479 121.59363,-129.3569 1.73222,-10.3681 2.85793,-20.7048 3.23952,-30.8734 3.87657,-103.26508 -64.85276,-189.67627 -153.50496,-193.00368 -9.69597,-0.36362 -19.22941,0.28446 -28.52383,1.85778 z m -55.40504,77.37283 c 0.7739,-0.15832 1.54916,-0.29174 2.32553,-0.39816 3.549,-0.48713 7.12311,-0.42278 10.66902,0.23531 28.36767,5.26377 -6.77277,36.579 -15.2925,82.47802 -8.51918,45.8965 12.81106,88.9968 -15.5543,83.7318 -28.36555,-5.2631 -44.45771,-46.7388 -35.94143,-92.63561 7.21958,-38.90729 29.8026,-68.50356 53.79368,-73.41136 z"
           style="color:#000000;font-style:normal;font-variant:normal;font-weight:normal;font-stretch:normal;font-size:medium;line-height:normal;font-family:sans-serif;font-variant-ligatures:normal;font-variant-position:normal;font-variant-caps:normal;font-variant-numeric:normal;font-variant-alternates:normal;font-feature-settings:normal;text-indent:0;text-align:start;text-decoration:none;text-decoration-line:none;text-decoration-style:solid;text-decoration-color:#000000;letter-spacing:normal;word-spacing:normal;text-transform:none;writing-mode:lr-tb;direction:ltr;text-orientation:mixed;dominant-baseline:auto;baseline-shift:baseline;text-anchor:start;white-space:normal;shape-padding:0;clip-rule:nonzero;display:inline;overflow:visible;visibility:visible;opacity:1;isolation:auto;mix-blend-mode:normal;color-interpolation:sRGB;color-interpolation-filters:linearRGB;solid-color:#000000;solid-opacity:1;vector-effect:none;fill:#1a1a1a;fill-opacity:1;fill-rule:nonzero;stroke:none;stroke-width:4.94250441;stroke-linecap:round;stroke-linejoin:miter;stroke-miterlimit:4;stroke-dasharray:none;stroke-dashoffset:0;stroke-opacity:1;color-rendering:auto;image-rendering:auto;shape-rendering:auto;text-rendering:auto;enable-background:accumulate" />
        <path
           id="path20"
           d="m 273.83107,1089.8007 c -0.92117,0.1585 -1.8423,0.3274 -2.76263,0.5071 -87.07303,16.9748 -141.63019,112.9547 -121.86165,214.3817 19.24185,98.732 108.99641,202.9868 194.0693,192.81 0.11325,1.9551 0.0294,4.9083 -1.42893,6.7264 -1.42982,1.7863 -7.38178,1.2684 -7.86386,5.1027 -0.48498,3.8871 8.38432,4.5822 17.50025,3.3446 l -1.01824,0.1752 c 1.07252,4.8746 2.11225,9.7801 3.10619,14.6206 3.06652,14.9253 5.87112,29.1491 13.04025,43.584 7.16987,14.4352 18.47853,28.698 25.7878,39.613 7.30906,10.9171 10.74259,18.5092 13.85364,28.6497 3.11135,10.1403 5.85472,22.9704 11.83893,35.1163 5.98539,12.1457 15,23.1666 23.88908,34.0833 2.04389,2.8184 6.17091,-0.5352 3.8304,-3.1125 -8.88998,-10.9173 -17.65174,-21.7193 -23.28761,-33.1563 -5.6355,-11.4377 -8.34659,-23.9208 -11.55639,-34.3841 -3.21051,-10.4632 -6.96116,-18.7362 -14.4673,-29.9473 -7.50659,-11.2102 -18.6386,-25.3205 -25.4596,-39.0531 -6.82083,-13.7335 -9.54584,-27.439 -12.61622,-42.3866 -0.97633,-4.7511 -2.00348,-9.5915 -3.05914,-14.4047 -0.53008,0.091 -1.06803,0.1421 -1.59881,0.2335 9.01855,-1.5518 17.56833,-4.9011 16.75275,-9.0281 -0.63386,-3.2511 -7.48457,-1.399 -9.28693,-2.5461 -2.07033,-1.3175 -3.46072,-4.001 -4.26615,-5.8932 82.74522,-22.4243 126.82713,-152.826 107.57101,-251.6069 -1.40811,-7.2236 -3.19609,-14.2569 -5.25826,-21.1273 -44.45693,-19.0522 -80.98763,-66.4744 -102.5832,-121.7015 -25.10471,-11.0407 -52.50761,-15.295 -80.10274,-11.0538 l 0.002,0.01 c -0.92058,0.1371 -1.84243,0.2853 -2.7636,0.4438 z m -47.81293,77.2101 c 2.64714,-0.3652 5.32033,-0.4229 8.0103,-0.1396 28.69342,3.0205 -4.70567,35.8156 -9.59538,82.242 -4.88929,46.4235 20.58752,88.9032 -8.10375,85.8813 -28.69136,-3.0198 -47.98944,-43.1092 -43.10294,-89.5326 4.42876,-42.0745 27.20458,-74.9117 52.79177,-78.4511 z"
           style="color:#000000;font-style:normal;font-variant:normal;font-weight:normal;font-stretch:normal;font-size:medium;line-height:normal;font-family:sans-serif;font-variant-ligatures:normal;font-variant-position:normal;font-variant-caps:normal;font-variant-numeric:normal;font-variant-alternates:normal;font-feature-settings:normal;text-indent:0;text-align:start;text-decoration:none;text-decoration-line:none;text-decoration-style:solid;text-decoration-color:#000000;letter-spacing:normal;word-spacing:normal;text-transform:none;writing-mode:lr-tb;direction:ltr;text-orientation:mixed;dominant-baseline:auto;baseline-shift:baseline;text-anchor:start;white-space:normal;shape-padding:0;clip-rule:nonzero;display:inline;overflow:visible;visibility:visible;opacity:1;isolation:auto;mix-blend-mode:normal;color-interpolation:sRGB;color-interpolation-filters:linearRGB;solid-color:#000000;solid-opacity:1;vector-effect:none;fill:#1a1a1a;fill-opacity:1;fill-rule:nonzero;stroke:none;stroke-width:4.94250441;stroke-linecap:round;stroke-linejoin:miter;stroke-miterlimit:4;stroke-dasharray:none;stroke-dashoffset:0;stroke-opacity:1;color-rendering:auto;image-rendering:auto;shape-rendering:auto;text-rendering:auto;enable-background:accumulate" />
        <path
           id="path18"
           d="m 695.00705,1034.9314 c -60.7935,10.754 -117.03512,59.0544 -141.55431,129.1626 -33.20845,94.95 -8.34004,230.254 70.243,264.3965 -0.89088,1.7437 -2.44737,4.2517 -4.62248,5.0859 -2.13578,0.8206 -7.01054,-2.6338 -9.36376,0.4399 -2.37074,3.0985 4.87538,8.1354 13.32692,11.663 -0.6373,-0.2609 -1.29331,-0.496 -1.91364,-0.7786 -3.98173,7.7994 -8.45213,15.9015 -12.86772,23.7406 -7.47754,13.2761 -14.69974,25.8494 -18.75917,41.4472 -4.0594,15.5978 -4.88348,33.7763 -6.52811,46.8102 -1.64586,13.0337 -4.03371,21.0183 -8.33872,30.7123 -4.30421,9.6945 -10.6456,21.1813 -14.09753,34.2735 -3.45101,13.0931 -3.8877,27.3224 -4.34062,41.3941 -0.22932,3.4012 4.93887,3.5741 4.9374,0.1652 0.45323,-14.0721 0.92802,-27.972 4.17777,-40.3018 3.25083,-12.3288 9.39287,-23.5264 13.83525,-33.5289 4.44124,-10.0025 7.03671,-18.6992 8.72678,-32.085 1.68922,-13.3852 2.54683,-31.3512 6.4087,-46.1912 3.86221,-14.8395 10.80112,-26.9734 18.29013,-40.2685 4.49466,-7.9802 9.06316,-16.2648 13.15118,-24.3047 -0.27599,-0.1017 -0.53832,-0.2223 -0.81311,-0.3258 8.68163,3.3094 18.00626,4.8135 19.40535,0.7793 1.09317,-3.1269 -5.75457,-4.986 -6.73191,-6.8859 -1.12253,-2.1818 -0.97358,-5.1891 -0.71286,-7.2299 82.7534,22.3942 186.62035,-67.9529 219.84119,-162.9523 34.11265,-97.5457 -6.12498,-200.3604 -89.86699,-229.6457 -23.55175,-8.2357 -48.04394,-9.7796 -71.83274,-5.572 z m -59.88381,78.5141 c 5.39555,-1.0347 10.77708,-0.886 15.98054,0.5937 27.75204,7.8898 -8.893,34.9304 -21.66179,79.8335 -12.76825,44.9002 3.1717,90.6614 -24.57801,82.7702 -27.75026,-7.8898 -39.89147,-50.6821 -27.12609,-95.5833 10.37276,-36.4841 34.00352,-63.1367 57.38535,-67.6141 z"
           style="color:#000000;font-style:normal;font-variant:normal;font-weight:normal;font-stretch:normal;font-size:medium;line-height:normal;font-family:sans-serif;font-variant-ligatures:normal;font-variant-position:normal;font-variant-caps:normal;font-variant-numeric:normal;font-variant-alternates:normal;font-feature-settings:normal;text-indent:0;text-align:start;text-decoration:none;text-decoration-line:none;text-decoration-style:solid;text-decoration-color:#000000;letter-spacing:normal;word-spacing:normal;text-transform:none;writing-mode:lr-tb;direction:ltr;text-orientation:mixed;dominant-baseline:auto;baseline-shift:baseline;text-anchor:start;white-space:normal;shape-padding:0;clip-rule:nonzero;display:inline;overflow:visible;visibility:visible;opacity:1;isolation:auto;mix-blend-mode:normal;color-interpolation:sRGB;color-interpolation-filters:linearRGB;solid-color:#000000;solid-opacity:1;vector-effect:none;fill:#1a1a1a;fill-opacity:1;fill-rule:nonzero;stroke:none;stroke-width:4.94250441;stroke-linecap:round;stroke-linejoin:miter;stroke-miterlimit:4;stroke-dasharray:none;stroke-dashoffset:0;stroke-opacity:1;color-rendering:auto;image-rendering:auto;shape-rendering:auto;text-rendering:auto;enable-background:accumulate" />
      </g>
    </g>
  </g>
</svg>
